<svg width="203" height="50" viewBox="0 0 203 50" fill="none" xmlns="http://www.w3.org/2000/svg">
<path d="M75.8092 0.847462H42.1162V11.017H75.8092V0.847462Z" fill="black"/>
<path d="M33.6929 0.847462H0V11.017H33.6929V0.847462Z" fill="black"/>
<path d="M25.2697 19.4915H8.42322V29.661H25.2697V19.4915Z" fill="#FFB923"/>
<path d="M21.0581 38.9831H12.6349V49.1525H21.0581V38.9831Z" fill="black"/>
<path d="M75.8091 38.9831H33.6929V49.1525H75.8091V38.9831Z" fill="black"/>
<path d="M65.7012 0.847462V49.1525H75.8091V0.847462H65.7012Z" fill="black"/>
<path d="M111.129 14.7336H101.957V39.8305H95.7882V14.7336H86.7399V9.70602H111.129V14.7336ZM125.75 28.8028H120.836V39.8305H114.666V9.70602H125.792C129.329 9.70602 132.057 10.4992 133.977 12.0853C135.895 13.6716 136.856 15.913 136.856 18.8096C136.856 20.8647 136.41 22.582 135.519 23.9614C134.641 25.3269 133.304 26.4165 131.509 27.2303L137.986 39.5408V39.8305H131.365L125.75 28.8028ZM120.836 23.7752H125.812C127.361 23.7752 128.561 23.382 129.411 22.5958C130.261 21.7958 130.686 20.6992 130.686 19.3061C130.686 17.8854 130.281 16.7682 129.473 15.9544C128.678 15.1406 127.45 14.7336 125.792 14.7336H120.836V23.7752ZM158.469 33.6236H147.652L145.596 39.8305H139.036L150.181 9.70602H155.898L167.106 39.8305H160.546L158.469 33.6236ZM149.318 28.5959H156.803L153.04 17.3199L149.318 28.5959ZM176.463 39.8305H170.293V9.70602H176.463V39.8305ZM188.37 34.8442H201.469V39.8305H182.2V9.70602H188.37V34.8442Z" fill="black"/>
</svg>
